<svg itemprop="logo" alt="ZARA 로고 South Korea / 대한민국.  메인 페이지로 가기" viewBox="0 0 1077.37 453.17001" fill="#000" xmlns="http://www.w3.org/2000/svg"><path d="M 1022.11,439.76 862.49,0.29 862.38,0 h -3.15 l -32.87,90.31 -59.84,164.41 -0.14,-0.13 c -20.74,-18.3 -50,-29.74 -86.85,-34 L 668.29,219.43 679.44,218 C 740.21,207.08 781.06,168.7 781.06,122.46 781.06,59.05 721.42,14.79 635.99,14.79 H 458.24 V 18 h 51.65 V 345.65 L 384.45,0.29 384.34,0 h -3.15 l -32.87,90.31 -126.78,348.32 -0.78,0.09 c -2.167,0.267 -4.31,0.48 -6.43,0.64 -3.19,0.25 -6.36,0.4 -9.54,0.4 H 76.69 L 320.19,18 322,14.83 H 24.19 V 145.3 h 3.16 C 27.91,81.75 64.92,18 146.69,18 h 98.65 L 0,442.92 h 330.52 v -125 h -3.16 c -0.43,55.39 -31.83,108 -100.11,119.88 l -2.17,0.37 52,-142.93 h 145.67 l 52.49,144.52 h -51.78 v 3.16 h 203.23 v -3.16 h -52 v -218 h 60 c 61.06,0 96.08,27.28 96.08,74.82 v 38.67 c 0,4.26 0.29,10.49 0.61,15.7 v 0.19 l -32.25,88.6 H 657 v 3.16 h 87.21 v -3.16 h -41.68 l 29.37,-80.68 c 0.06,0.78 0.09,1.25 0.09,1.25 l 0.81,7.27 0.78,4.81 c 4.9,29.75 16.28,51.62 33.81,65 l 2.52,1.83 c 13.32,9.26 29.87,13.95 49.22,13.95 25.63,0 42.72,-6.39 56.83,-21.43 L 874.11,430 c -13,12 -23.91,16.86 -37.58,16.86 -23.29,0 -35.48,-28.25 -35.48,-56.11 v -54.18 c 0.124,-13.444 -1.981,-26.815 -6.23,-39.57 l -0.58,-1.68 v -0.06 h 106.55 l 52.49,144.52 H 901.5 v 3.16 h 175.87 v -3.16 z M 278.24,292.08 350,94.93 421.6,292.08 Z M 574.72,218.59 V 18 h 45.8 C 681.7,18 714,54.37 714,123.14 c 0,73.14 -18.54,95.45 -79.31,95.45 z M 793,292.08 792.69,291.3 c -4.735,-11.532 -11.628,-22.054 -20.31,-31 l -3,-3 L 769.06,257 828,94.93 899.6,292.08 Z" ></path></svg>